<svg width="825" height="168" viewBox="0 0 825 168" fill="none" xmlns="http://www.w3.org/2000/svg">
<rect y="11" width="139" height="139" rx="3" fill="white"/>
<rect y="11" width="825" height="139" rx="3" fill="white"/>
<rect x="44.5234" y="40.3203" width="79.8164" height="79.8164" rx="3" fill="url(#paint0_linear_2274_6673)"/>
<mask id="path-4-inside-1_2274_6673" fill="white">
<ellipse cx="54.2969" cy="80.2285" rx="41.2656" ry="40.9941" transform="rotate(-180 54.2969 80.2285)"/>
</mask>
<ellipse cx="54.2969" cy="80.2285" rx="41.2656" ry="40.9941" transform="rotate(-180 54.2969 80.2285)" fill="url(#paint1_linear_2274_6673)"/>
<path d="M84.0312 80.2285C84.0312 97.2414 70.2761 110.234 54.2969 110.234L54.2969 -31.7656C-7.26313 -31.7656 -57.9687 17.9347 -57.9688 80.2285L84.0312 80.2285ZM54.2969 110.234C38.3176 110.234 24.5625 97.2414 24.5625 80.2285L166.563 80.2285C166.563 17.9347 115.857 -31.7656 54.2969 -31.7656L54.2969 110.234ZM24.5625 80.2285C24.5625 63.2156 38.3176 50.2227 54.2969 50.2227L54.2969 192.223C115.857 192.223 166.562 142.522 166.563 80.2285L24.5625 80.2285ZM54.2969 50.2227C70.2761 50.2227 84.0312 63.2156 84.0312 80.2285L-57.9688 80.2285C-57.9688 142.522 -7.26315 192.223 54.2969 192.223L54.2969 50.2227Z" fill="white" mask="url(#path-4-inside-1_2274_6673)"/>
<mask id="path-6-inside-2_2274_6673" fill="white">
<ellipse cx="54.2969" cy="80.2285" rx="41.2656" ry="40.9941" transform="rotate(-180 54.2969 80.2285)"/>
</mask>
<ellipse cx="54.2969" cy="80.2285" rx="41.2656" ry="40.9941" transform="rotate(-180 54.2969 80.2285)" fill="url(#paint2_linear_2274_6673)"/>
<path d="M84.0312 80.2285C84.0312 97.2414 70.2761 110.234 54.2969 110.234L54.2969 -31.7656C-7.26313 -31.7656 -57.9687 17.9347 -57.9688 80.2285L84.0312 80.2285ZM54.2969 110.234C38.3176 110.234 24.5625 97.2414 24.5625 80.2285L166.563 80.2285C166.563 17.9347 115.857 -31.7656 54.2969 -31.7656L54.2969 110.234ZM24.5625 80.2285C24.5625 63.2156 38.3176 50.2227 54.2969 50.2227L54.2969 192.223C115.857 192.223 166.562 142.522 166.563 80.2285L24.5625 80.2285ZM54.2969 50.2227C70.2761 50.2227 84.0312 63.2156 84.0312 80.2285L-57.9688 80.2285C-57.9688 142.522 -7.26315 192.223 54.2969 192.223L54.2969 50.2227Z" fill="white" mask="url(#path-6-inside-2_2274_6673)"/>
<path d="M238.664 108.144C233.118 110.858 226.746 112.628 218.722 112.628C198.78 112.628 186.744 99.766 186.744 80.414C186.744 61.18 198.426 47.964 218.25 47.964C226.746 47.964 233.118 49.616 238.428 53.038V45.368C233.236 41.71 225.802 40.294 218.25 40.294C193.116 40.294 178.838 56.932 178.838 80.414C178.838 104.84 193.47 120.18 218.486 120.18C226.51 120.18 233.944 118.646 238.664 115.814V108.144ZM273.964 120.18C291.782 120.18 301.576 107.082 301.576 89.618C301.576 72.272 291.782 59.292 273.964 59.292C256.146 59.292 246.234 72.272 246.234 89.618C246.234 107.082 256.146 120.18 273.964 120.18ZM273.964 66.254C288.124 66.254 294.26 77.228 294.26 89.618C294.26 102.126 288.124 113.1 273.964 113.1C259.804 113.1 253.668 102.126 253.668 89.618C253.668 77.228 259.804 66.254 273.964 66.254ZM362.707 84.662C362.707 68.024 354.683 59.292 341.113 59.292C332.381 59.292 324.829 63.658 321.171 71.918V60.472H313.619V119H321.171V86.55C321.171 73.216 328.369 66.136 339.107 66.136C349.845 66.136 355.155 71.446 355.155 83.954V119H362.707V84.662ZM426.662 84.662C426.662 68.024 418.638 59.292 405.068 59.292C396.336 59.292 388.784 63.658 385.126 71.918V60.472H377.574V119H385.126V86.55C385.126 73.216 392.324 66.136 403.062 66.136C413.8 66.136 419.11 71.446 419.11 83.954V119H426.662V84.662ZM465.011 66.136C476.693 66.136 482.121 73.806 482.593 86.668H445.305C446.131 74.868 452.149 66.136 465.011 66.136ZM486.723 116.64V109.796C481.649 111.684 475.867 112.982 469.023 112.982C453.329 112.982 446.485 104.722 445.305 93.158H490.263V89.382C490.263 71.8 483.065 59.292 465.365 59.292C447.075 59.292 437.753 72.39 437.753 89.736C437.753 107.2 446.957 120.18 468.787 120.18C474.333 120.18 482.239 119.236 486.723 116.64ZM543.429 110.858C539.771 112.156 535.877 112.982 529.977 112.982C513.221 112.982 506.377 102.244 506.377 89.618C506.377 76.52 513.457 66.254 530.095 66.254C535.169 66.254 539.299 67.198 543.075 68.968V62.006C538.827 60 534.697 59.292 529.623 59.292C508.619 59.292 498.943 71.918 498.943 89.618C498.943 107.554 508.619 120.18 529.387 120.18C534.461 120.18 540.007 119.354 543.429 117.702V110.858ZM567.524 102.362V67.434H584.28V60.472H567.524V47.964H560.09V60.472H549.706V67.434H560.09V102.48C560.09 112.628 565.99 119.59 577.672 119.59C580.622 119.59 582.51 119.118 584.28 118.646V111.448C582.392 111.802 580.268 112.156 578.026 112.156C571.064 112.156 567.524 108.262 567.524 102.362ZM596.132 45.014C596.132 48.554 598.492 50.56 601.796 50.56C604.982 50.56 607.342 48.554 607.342 45.014C607.342 41.474 604.982 39.468 601.796 39.468C598.492 39.468 596.132 41.474 596.132 45.014ZM597.902 119H605.454V60.472H597.902V119ZM645.249 120.18C663.067 120.18 672.861 107.082 672.861 89.618C672.861 72.272 663.067 59.292 645.249 59.292C627.431 59.292 617.519 72.272 617.519 89.618C617.519 107.082 627.431 120.18 645.249 120.18ZM645.249 66.254C659.409 66.254 665.545 77.228 665.545 89.618C665.545 102.126 659.409 113.1 645.249 113.1C631.089 113.1 624.953 102.126 624.953 89.618C624.953 77.228 631.089 66.254 645.249 66.254ZM733.992 84.662C733.992 68.024 725.968 59.292 712.398 59.292C703.666 59.292 696.114 63.658 692.456 71.918V60.472H684.904V119H692.456V86.55C692.456 73.216 699.654 66.136 710.392 66.136C721.13 66.136 726.44 71.446 726.44 83.954V119H733.992V84.662ZM788.271 104.014C788.271 94.22 782.253 89.5 768.565 85.96C756.529 82.774 753.933 79.47 753.933 74.986C753.933 69.44 758.535 66.254 767.149 66.254C773.167 66.254 779.185 68.024 785.321 71.328V63.422C781.191 61.18 774.465 59.292 767.149 59.292C754.287 59.292 746.617 65.192 746.617 74.986C746.617 83.718 751.455 88.792 765.025 92.332C777.415 95.636 780.837 98.704 780.837 104.014C780.837 109.442 776.471 113.218 767.149 113.218C759.715 113.218 751.455 110.504 746.381 107.554V115.46C750.983 117.938 757.945 120.18 766.795 120.18C782.017 120.18 788.271 113.218 788.271 104.014Z" fill="url(#paint3_linear_2274_6673)"/>
<defs>
<linearGradient id="paint0_linear_2274_6673" x1="84.4485" y1="106.381" x2="84.4485" y2="35.7959" gradientUnits="userSpaceOnUse">
<stop stop-color="#2684FF"/>
<stop offset="0.824" stop-color="#0052CC"/>
</linearGradient>
<linearGradient id="paint1_linear_2274_6673" x1="54.3143" y1="107.092" x2="54.3143" y2="34.5868" gradientUnits="userSpaceOnUse">
<stop stop-color="#2684FF"/>
<stop offset="0.824" stop-color="#0052CC"/>
</linearGradient>
<linearGradient id="paint2_linear_2274_6673" x1="54.3143" y1="107.092" x2="54.3143" y2="34.5868" gradientUnits="userSpaceOnUse">
<stop stop-color="#2684FF"/>
<stop offset="0.824" stop-color="#0052CC"/>
</linearGradient>
<linearGradient id="paint3_linear_2274_6673" x1="468.5" y1="33.5" x2="470.588" y2="118.986" gradientUnits="userSpaceOnUse">
<stop stop-color="#0152CC"/>
<stop offset="1" stop-color="#1D78F3" stop-opacity="0.7"/>
</linearGradient>
</defs>
</svg>
